<?xml version="1.0" encoding="UTF-8" standalone="no"?>
<!DOCTYPE svg PUBLIC "-//W3C//DTD SVG 1.1//EN" "http://www.w3.org/Graphics/SVG/1.1/DTD/svg11.dtd">
<svg width="100%" height="100%" viewBox="0 0 580 161" version="1.1" xmlns="http://www.w3.org/2000/svg" xmlns:xlink="http://www.w3.org/1999/xlink" xml:space="preserve" xmlns:serif="http://www.serif.com/" style="fill-rule:evenodd;clip-rule:evenodd;stroke-linejoin:round;stroke-miterlimit:2;">
    <g transform="matrix(1,0,0,1,2623.6,-1709.32)">
        <g transform="matrix(1,0,0,1,-1045.47,897.646)">
            <g transform="matrix(1.12704,0,0,0.931737,-1635.3,-1442.87)">
                <rect x="50.73" y="2420.79" width="514.624" height="171.722" style="fill:rgb(0,52,118);"/>
            </g>
            <g transform="matrix(1,0,0,1,-1589.66,125.724)">
                <path d="M579.88,685.953L467.735,845.95L406.076,845.95L520.722,686.231L579.88,685.953Z" style="fill:white;"/>
            </g>
            <g transform="matrix(1.12781,0,0,1,-3440.71,-251.536)">
                <g transform="matrix(2,0,0,2,865.328,-127.642)">
                    <path d="M432.974,624.247L446.185,607.484L446.185,636.855L432.974,653.618L432.974,624.247Z" style="fill:rgb(0,174,239);fill-rule:nonzero;"/>
                </g>
                <g transform="matrix(2,0,0,2,865.328,-127.642)">
                    <path d="M432.974,653.618L414.939,653.618C406.828,653.618 400.253,647.044 400.253,638.933C400.253,630.822 406.828,624.247 414.939,624.247L432.974,624.247L432.974,653.618Z" style="fill:rgb(0,174,239);fill-rule:nonzero;"/>
                </g>
                <g transform="matrix(2,0,0,2,865.328,-127.642)">
                    <path d="M546.243,636.855L446.185,636.855L446.185,607.484L546.243,607.484C554.354,607.484 560.929,614.06 560.929,622.17C560.929,630.281 554.354,636.855 546.243,636.855Z" style="fill:rgb(0,174,239);fill-rule:nonzero;"/>
                </g>
            </g>
            <g transform="matrix(0.873164,0,0,1.71994,-2968.75,-2104.73)">
                <g transform="matrix(47.6842,0,0,24.2079,1739.39,1735.23)">
                    <path d="M0.415,0L0.149,-0.659L0.145,-0.659C0.148,-0.619 0.149,-0.577 0.149,-0.535L0.149,0L0.101,0L0.101,-0.714L0.178,-0.714L0.431,-0.086L0.434,-0.086L0.687,-0.714L0.762,-0.714L0.762,0L0.712,0L0.712,-0.541C0.712,-0.579 0.714,-0.618 0.718,-0.658L0.714,-0.658L0.447,0L0.415,0Z" style="fill:white;fill-rule:nonzero;"/>
                </g>
                <g transform="matrix(47.6842,0,0,24.2079,1782.44,1735.23)">
                    <path d="M0.445,-0.252L0.155,-0.252L0.055,0L0,0L0.287,-0.717L0.319,-0.717L0.6,0L0.544,0L0.445,-0.252ZM0.173,-0.297L0.428,-0.297L0.331,-0.554C0.323,-0.574 0.313,-0.602 0.302,-0.638C0.293,-0.607 0.283,-0.579 0.273,-0.553L0.173,-0.297Z" style="fill:white;fill-rule:nonzero;"/>
                </g>
                <g transform="matrix(47.6842,0,0,24.2079,1812.96,1735.23)">
                    <path d="M0.219,-0.387L0.544,-0.387L0.544,-0.341L0.219,-0.341L0.219,-0.387ZM0.701,-0.358C0.701,-0.245 0.673,-0.155 0.616,-0.089C0.56,-0.023 0.481,0.01 0.382,0.01C0.283,0.01 0.205,-0.023 0.148,-0.089C0.091,-0.155 0.063,-0.245 0.063,-0.359C0.063,-0.472 0.092,-0.562 0.149,-0.627C0.206,-0.692 0.284,-0.725 0.383,-0.725C0.482,-0.725 0.56,-0.692 0.617,-0.627C0.673,-0.561 0.701,-0.472 0.701,-0.358ZM0.117,-0.358C0.117,-0.256 0.14,-0.177 0.186,-0.121C0.231,-0.065 0.297,-0.037 0.382,-0.037C0.468,-0.037 0.533,-0.065 0.579,-0.12C0.624,-0.175 0.647,-0.255 0.647,-0.358C0.647,-0.461 0.624,-0.54 0.579,-0.594C0.533,-0.649 0.468,-0.677 0.383,-0.677C0.298,-0.677 0.232,-0.649 0.186,-0.594C0.14,-0.538 0.117,-0.46 0.117,-0.358Z" style="fill:white;fill-rule:nonzero;"/>
                </g>
                <g transform="matrix(47.6842,0,0,24.2079,1851.31,1735.23)">
                    <path d="M0.491,0L0.101,0L0.101,-0.714L0.491,-0.714L0.491,-0.668L0.151,-0.668L0.151,-0.398L0.472,-0.398L0.472,-0.352L0.151,-0.352L0.151,-0.046L0.491,-0.046L0.491,0Z" style="fill:white;fill-rule:nonzero;"/>
                </g>
                <g transform="matrix(47.6842,0,0,24.2079,1898.75,1735.23)">
                    <path d="M0.287,0L0.237,0L0.237,-0.667L0.005,-0.667L0.005,-0.714L0.519,-0.714L0.519,-0.667L0.287,-0.667L0.287,0Z" style="fill:white;fill-rule:nonzero;"/>
                </g>
                <g transform="matrix(47.6842,0,0,24.2079,1925.64,1735.23)">
                    <path d="M0.701,-0.358C0.701,-0.245 0.673,-0.155 0.616,-0.089C0.56,-0.023 0.481,0.01 0.382,0.01C0.283,0.01 0.205,-0.023 0.148,-0.089C0.091,-0.155 0.063,-0.245 0.063,-0.359C0.063,-0.472 0.092,-0.562 0.149,-0.627C0.206,-0.692 0.284,-0.725 0.383,-0.725C0.482,-0.725 0.56,-0.692 0.617,-0.627C0.673,-0.561 0.701,-0.472 0.701,-0.358ZM0.117,-0.358C0.117,-0.256 0.14,-0.177 0.186,-0.121C0.231,-0.065 0.297,-0.037 0.382,-0.037C0.468,-0.037 0.533,-0.065 0.579,-0.12C0.624,-0.175 0.647,-0.255 0.647,-0.358C0.647,-0.461 0.624,-0.54 0.579,-0.594C0.533,-0.649 0.468,-0.677 0.383,-0.677C0.298,-0.677 0.232,-0.649 0.186,-0.594C0.14,-0.538 0.117,-0.46 0.117,-0.358Z" style="fill:white;fill-rule:nonzero;"/>
                </g>
            </g>
            <g transform="matrix(1,0,0,1,-4106.59,254.446)">
                <g transform="matrix(44,0,0,44,2566.26,659.856)">
                    <path d="M0.427,-0.357C0.427,-0.228 0.411,-0.134 0.38,-0.077C0.349,-0.019 0.299,0.01 0.23,0.01C0.161,0.01 0.111,-0.019 0.081,-0.077C0.051,-0.135 0.036,-0.228 0.036,-0.357C0.036,-0.486 0.052,-0.579 0.083,-0.638C0.115,-0.696 0.165,-0.725 0.232,-0.725C0.301,-0.725 0.35,-0.697 0.381,-0.64C0.411,-0.583 0.427,-0.488 0.427,-0.357ZM0.169,-0.357C0.169,-0.257 0.173,-0.19 0.182,-0.155C0.191,-0.12 0.207,-0.103 0.231,-0.103C0.247,-0.103 0.26,-0.111 0.269,-0.125C0.278,-0.14 0.284,-0.165 0.288,-0.2C0.292,-0.235 0.294,-0.287 0.294,-0.357C0.294,-0.455 0.289,-0.522 0.28,-0.558C0.271,-0.594 0.255,-0.612 0.231,-0.612C0.207,-0.612 0.191,-0.594 0.182,-0.558C0.173,-0.523 0.169,-0.456 0.169,-0.357Z" style="fill:white;fill-rule:nonzero;"/>
                </g>
                <g transform="matrix(44,0,0,44,2586.63,659.856)">
                    <path d="M0.448,-0.15L0.376,-0.15L0.376,0L0.251,0L0.251,-0.15L0.018,-0.15L0.018,-0.258L0.234,-0.714L0.376,-0.714L0.376,-0.26L0.448,-0.26L0.448,-0.15ZM0.251,-0.26L0.251,-0.41L0.253,-0.477L0.257,-0.54L0.253,-0.54C0.242,-0.505 0.229,-0.472 0.216,-0.444L0.13,-0.26L0.251,-0.26Z" style="fill:white;fill-rule:nonzero;"/>
                </g>
            </g>
            <g transform="matrix(0.384075,-0.519413,0.924921,0.683924,-3406.25,685.795)">
                <g transform="matrix(47.3509,0,0,26.5911,1739.39,1730.69)">
                    <path d="M0.655,0L0.504,0L0.504,-0.588L0.241,-0.588L0.241,0L0.09,0L0.09,-0.714L0.655,-0.714L0.655,0Z" style="fill:rgb(0,174,239);fill-rule:nonzero;"/>
                </g>
                <g transform="matrix(47.3509,0,0,26.5911,1776.57,1730.69)">
                    <path d="M0.241,-0.378L0.291,-0.378C0.338,-0.378 0.372,-0.387 0.396,-0.406C0.419,-0.424 0.43,-0.451 0.43,-0.486C0.43,-0.521 0.42,-0.548 0.401,-0.564C0.382,-0.581 0.351,-0.59 0.31,-0.59L0.241,-0.59L0.241,-0.378ZM0.583,-0.491C0.583,-0.414 0.559,-0.356 0.511,-0.315C0.463,-0.274 0.395,-0.254 0.306,-0.254L0.241,-0.254L0.241,0L0.09,0L0.09,-0.714L0.318,-0.714C0.404,-0.714 0.47,-0.695 0.515,-0.658C0.56,-0.621 0.583,-0.565 0.583,-0.491Z" style="fill:rgb(0,174,239);fill-rule:nonzero;"/>
                </g>
                <g transform="matrix(47.3509,0,0,26.5911,1805.35,1730.69)">
                    <path d="M0.738,-0.358C0.738,-0.24 0.708,-0.149 0.65,-0.085C0.591,-0.022 0.507,0.01 0.398,0.01C0.289,0.01 0.205,-0.022 0.146,-0.085C0.087,-0.149 0.058,-0.24 0.058,-0.359C0.058,-0.478 0.087,-0.568 0.146,-0.631C0.205,-0.694 0.289,-0.725 0.399,-0.725C0.509,-0.725 0.593,-0.694 0.651,-0.63C0.709,-0.567 0.738,-0.476 0.738,-0.358ZM0.217,-0.358C0.217,-0.278 0.232,-0.218 0.262,-0.178C0.292,-0.137 0.338,-0.117 0.398,-0.117C0.519,-0.117 0.579,-0.197 0.579,-0.358C0.579,-0.519 0.519,-0.599 0.399,-0.599C0.339,-0.599 0.293,-0.579 0.263,-0.538C0.232,-0.498 0.217,-0.438 0.217,-0.358Z" style="fill:rgb(0,174,239);fill-rule:nonzero;"/>
                </g>
                <g transform="matrix(47.3509,0,0,26.5911,1844.46,1730.69)">
                    <path d="M0.038,0L0.038,-0.119L0.268,-0.374L0.044,-0.598L0.044,-0.714L0.53,-0.714L0.53,-0.59L0.316,-0.59C0.299,-0.59 0.262,-0.592 0.205,-0.595L0.427,-0.375L0.194,-0.119C0.272,-0.123 0.318,-0.125 0.333,-0.125L0.559,-0.125L0.559,0L0.038,0Z" style="fill:rgb(0,174,239);fill-rule:nonzero;"/>
                </g>
                <g transform="matrix(47.3509,0,0,26.5911,1874.42,1730.69)">
                    <path d="M0.501,0L0.09,0L0.09,-0.714L0.501,-0.714L0.501,-0.59L0.241,-0.59L0.241,-0.433L0.483,-0.433L0.483,-0.309L0.241,-0.309L0.241,-0.125L0.501,-0.125L0.501,0Z" style="fill:rgb(0,174,239);fill-rule:nonzero;"/>
                </g>
                <g transform="matrix(47.3509,0,0,26.5911,1902.84,1730.69)">
                    <path d="M0.667,0L0.494,0L0.328,-0.27L0.162,0L0,0L0.237,-0.368L0.015,-0.714L0.182,-0.714L0.336,-0.457L0.487,-0.714L0.65,-0.714L0.426,-0.36L0.667,0Z" style="fill:rgb(0,174,239);fill-rule:nonzero;"/>
                </g>
                <g transform="matrix(47.3509,0,0,26.5911,1936.31,1730.69)">
                    <path d="M0.393,-0.599C0.334,-0.599 0.289,-0.581 0.257,-0.545C0.225,-0.51 0.209,-0.459 0.209,-0.394C0.209,-0.328 0.22,-0.274 0.241,-0.233C0.263,-0.192 0.295,-0.16 0.339,-0.136L0.339,0L0.027,0L0.027,-0.127L0.208,-0.127C0.159,-0.157 0.12,-0.198 0.094,-0.251C0.067,-0.303 0.053,-0.361 0.053,-0.426C0.053,-0.486 0.067,-0.538 0.095,-0.584C0.123,-0.629 0.162,-0.664 0.214,-0.688C0.265,-0.713 0.325,-0.725 0.393,-0.725C0.497,-0.725 0.58,-0.698 0.641,-0.644C0.702,-0.589 0.733,-0.516 0.733,-0.425C0.733,-0.36 0.719,-0.302 0.692,-0.251C0.665,-0.2 0.627,-0.158 0.576,-0.127L0.759,-0.127L0.759,0L0.445,0L0.445,-0.136C0.49,-0.16 0.523,-0.192 0.545,-0.234C0.566,-0.276 0.577,-0.33 0.577,-0.395C0.577,-0.46 0.561,-0.51 0.529,-0.546C0.497,-0.581 0.452,-0.599 0.393,-0.599Z" style="fill:rgb(0,174,239);fill-rule:nonzero;"/>
                </g>
                <g transform="matrix(47.3509,0,0,26.5911,1975.43,1730.69)">
                    <path d="M0.038,0L0.038,-0.119L0.268,-0.374L0.044,-0.598L0.044,-0.714L0.53,-0.714L0.53,-0.59L0.316,-0.59C0.299,-0.59 0.262,-0.592 0.205,-0.595L0.427,-0.375L0.194,-0.119C0.272,-0.123 0.318,-0.125 0.333,-0.125L0.559,-0.125L0.559,0L0.038,0Z" style="fill:rgb(0,174,239);fill-rule:nonzero;"/>
                </g>
            </g>
            <g transform="matrix(0.586618,0,0,0.586618,-1537.96,890.236)">
                <path d="M215,37.8L215,81.73C215,104.72 203.83,114.69 186.31,114.69C175.8,114.69 166.6,109 162.11,99.69L172.62,94.87C175.14,99.91 180.72,103.19 186.31,103.19C196.16,103.19 202.3,97.5 202.3,82.93L202.3,82.16C198.69,87.42 191.57,90.04 185.33,90.04C171.86,90.04 160.15,79.64 160.15,63.32C160.15,46.9 171.76,36.71 185.22,36.71C191.79,36.71 198.69,39.23 202.3,44.48L202.3,37.8L215,37.8ZM202.08,63.23C202.08,54.25 194.63,48.56 187.3,48.56C179.42,48.56 172.96,54.69 172.96,63.23C172.96,71.77 179.42,78.12 187.3,78.12C195.07,78.12 202.08,72.21 202.08,63.23Z" style="fill:white;fill-rule:nonzero;"/>
            </g>
            <g transform="matrix(0.586618,0,0,0.586618,-1537.96,890.236)">
                <path d="M223.1,63.23C223.1,47.02 235.69,36.73 250.25,36.73C264.81,36.73 277.51,47.02 277.51,63.23C277.51,79.44 264.81,90.06 250.25,90.06C235.7,90.05 223.1,79.43 223.1,63.23ZM264.71,63.23C264.71,54.47 258.14,48.56 250.26,48.56C242.38,48.56 235.92,54.47 235.92,63.23C235.92,72.21 242.38,78.23 250.26,78.23C258.14,78.23 264.71,72.21 264.71,63.23Z" style="fill:white;fill-rule:nonzero;"/>
            </g>
            <g transform="matrix(0.586618,0,0,0.586618,-1537.96,890.236)">
                <path d="M332.16,37.82L310.59,88.95L298.98,88.95L277.63,37.82L291.32,37.82L304.9,72.86L318.37,37.82L332.16,37.82Z" style="fill:white;fill-rule:nonzero;"/>
            </g>
            <g transform="matrix(0.586618,0,0,0.586618,-1537.96,890.236)">
                <path d="M387.24,37.8L387.24,81.73C387.24,104.72 376.07,114.69 358.55,114.69C348.04,114.69 338.84,109 334.35,99.69L344.86,94.87C347.38,99.91 352.96,103.19 358.55,103.19C368.4,103.19 374.54,97.5 374.54,82.93L374.54,82.16C370.93,87.42 363.81,90.04 357.57,90.04C344.1,90.04 332.39,79.64 332.39,63.32C332.39,46.9 344,36.71 357.46,36.71C364.03,36.71 370.93,39.23 374.54,44.48L374.54,37.8L387.24,37.8ZM374.32,63.23C374.32,54.25 366.87,48.56 359.54,48.56C351.66,48.56 345.2,54.69 345.2,63.23C345.2,71.77 351.66,78.12 359.54,78.12C367.31,78.12 374.32,72.21 374.32,63.23Z" style="fill:rgb(0,174,239);fill-rule:nonzero;"/>
            </g>
            <g transform="matrix(0.586618,0,0,0.586618,-1537.96,890.236)">
                <path d="M434.21,38.48L431.69,50.52C428.73,48.99 426.11,48.66 424.24,48.66C415.92,48.66 411.32,56.76 411.32,71.11L411.32,88.96L398.51,88.96L398.51,37.82L411.21,37.82L411.21,48.77C413.95,40.23 419.53,36.73 425.88,36.73C428.96,36.73 432.24,37.39 434.21,38.48Z" style="fill:rgb(0,174,239);fill-rule:nonzero;"/>
            </g>
        </g>
    </g>
</svg>
