<?xml version="1.0" encoding="UTF-8" standalone="no"?>
<!DOCTYPE svg PUBLIC "-//W3C//DTD SVG 1.1//EN" "http://www.w3.org/Graphics/SVG/1.1/DTD/svg11.dtd">
<svg width="100%" height="100%" viewBox="0 0 580 160" version="1.1" xmlns="http://www.w3.org/2000/svg" xmlns:xlink="http://www.w3.org/1999/xlink" xml:space="preserve" xmlns:serif="http://www.serif.com/" style="fill-rule:evenodd;clip-rule:evenodd;stroke-linejoin:round;stroke-miterlimit:2;">
    <g transform="matrix(1,0,0,1,771.263,-682.842)">
        <g>
            <g transform="matrix(1.12704,0,0,0.931737,-828.438,-1572.7)">
                <rect x="50.73" y="2420.79" width="514.624" height="171.722" style="fill:white;"/>
            </g>
            <g transform="matrix(1.12037,0,0,1.12037,-5691.05,116.207)">
                <g transform="matrix(2,0,0,2,3605.71,-536.443)">
                    <path d="M432.974,545.917L446.185,529.154L446.185,558.526L432.974,575.289L432.974,545.917Z" style="fill:rgb(74,124,191);fill-rule:nonzero;"/>
                </g>
                <g transform="matrix(2,0,0,2,3605.71,-536.443)">
                    <path d="M432.974,575.289L414.939,575.289C406.828,575.289 400.253,568.714 400.253,560.604L400.253,560.603C400.253,552.492 406.828,545.917 414.939,545.917L432.974,545.917L432.974,575.289Z" style="fill:rgb(135,171,218);fill-rule:nonzero;"/>
                </g>
                <g transform="matrix(2,0,0,2,3605.71,-536.443)">
                    <path d="M546.243,558.526L446.185,558.526L446.185,529.154L546.243,529.154C554.354,529.154 560.929,535.729 560.929,543.841C560.929,551.951 554.354,558.526 546.243,558.526Z" style="fill:rgb(135,171,218);fill-rule:nonzero;"/>
                </g>
            </g>
            <g transform="matrix(1.49679,0,0,3.29704,-3246.62,-4932.17)">
                <g transform="matrix(27.8169,0,0,12.6283,1739.39,1723.39)">
                    <path d="M0.415,0L0.149,-0.659L0.145,-0.659C0.148,-0.619 0.149,-0.577 0.149,-0.535L0.149,0L0.101,0L0.101,-0.714L0.178,-0.714L0.431,-0.086L0.434,-0.086L0.687,-0.714L0.762,-0.714L0.762,0L0.712,0L0.712,-0.541C0.712,-0.579 0.714,-0.618 0.718,-0.658L0.714,-0.658L0.447,0L0.415,0Z" style="fill:white;fill-rule:nonzero;"/>
                </g>
                <g transform="matrix(27.8169,0,0,12.6283,1764.51,1723.39)">
                    <path d="M0.445,-0.252L0.155,-0.252L0.055,0L0,0L0.287,-0.717L0.319,-0.717L0.6,0L0.544,0L0.445,-0.252ZM0.173,-0.297L0.428,-0.297L0.331,-0.554C0.323,-0.574 0.313,-0.602 0.302,-0.638C0.293,-0.607 0.283,-0.579 0.273,-0.553L0.173,-0.297Z" style="fill:white;fill-rule:nonzero;"/>
                </g>
                <g transform="matrix(27.8169,0,0,12.6283,1782.31,1723.39)">
                    <path d="M0.219,-0.387L0.544,-0.387L0.544,-0.341L0.219,-0.341L0.219,-0.387ZM0.701,-0.358C0.701,-0.245 0.673,-0.155 0.616,-0.089C0.56,-0.023 0.481,0.01 0.382,0.01C0.283,0.01 0.205,-0.023 0.148,-0.089C0.091,-0.155 0.063,-0.245 0.063,-0.359C0.063,-0.472 0.092,-0.562 0.149,-0.627C0.206,-0.692 0.284,-0.725 0.383,-0.725C0.482,-0.725 0.56,-0.692 0.617,-0.627C0.673,-0.561 0.701,-0.472 0.701,-0.358ZM0.117,-0.358C0.117,-0.256 0.14,-0.177 0.186,-0.121C0.231,-0.065 0.297,-0.037 0.382,-0.037C0.468,-0.037 0.533,-0.065 0.579,-0.12C0.624,-0.175 0.647,-0.255 0.647,-0.358C0.647,-0.461 0.624,-0.54 0.579,-0.594C0.533,-0.649 0.468,-0.677 0.383,-0.677C0.298,-0.677 0.232,-0.649 0.186,-0.594C0.14,-0.538 0.117,-0.46 0.117,-0.358Z" style="fill:white;fill-rule:nonzero;"/>
                </g>
                <g transform="matrix(27.8169,0,0,12.6283,1804.68,1723.39)">
                    <path d="M0.491,0L0.101,0L0.101,-0.714L0.491,-0.714L0.491,-0.668L0.151,-0.668L0.151,-0.398L0.472,-0.398L0.472,-0.352L0.151,-0.352L0.151,-0.046L0.491,-0.046L0.491,0Z" style="fill:white;fill-rule:nonzero;"/>
                </g>
                <g transform="matrix(27.8169,0,0,12.6283,1832.36,1723.39)">
                    <path d="M0.287,0L0.237,0L0.237,-0.667L0.005,-0.667L0.005,-0.714L0.519,-0.714L0.519,-0.667L0.287,-0.667L0.287,0Z" style="fill:white;fill-rule:nonzero;"/>
                </g>
                <g transform="matrix(27.8169,0,0,12.6283,1848.04,1723.39)">
                    <path d="M0.618,0L0.568,0L0.568,-0.351L0.151,-0.351L0.151,0L0.101,0L0.101,-0.714L0.151,-0.714L0.151,-0.397L0.568,-0.397L0.568,-0.714L0.618,-0.714L0.618,0Z" style="fill:white;fill-rule:nonzero;"/>
                </g>
                <g transform="matrix(27.8169,0,0,12.6283,1869.16,1723.39)">
                    <path d="M0.62,0L0.57,0L0.147,-0.634L0.143,-0.634C0.147,-0.558 0.149,-0.501 0.149,-0.463L0.149,0L0.101,0L0.101,-0.714L0.151,-0.714L0.573,-0.081L0.576,-0.081C0.573,-0.14 0.572,-0.195 0.572,-0.248L0.572,-0.714L0.62,-0.714L0.62,0Z" style="fill:white;fill-rule:nonzero;"/>
                </g>
                <g transform="matrix(31.7322,0,0,14.4058,1739.39,1743.56)">
                    <path d="M0.348,0L0.285,-0.259L0.112,-0.259L0.05,0L0,0L0.172,-0.714L0.221,-0.714L0.397,0L0.348,0ZM0.274,-0.307L0.211,-0.573C0.204,-0.603 0.199,-0.632 0.196,-0.658C0.193,-0.63 0.188,-0.602 0.182,-0.573L0.121,-0.307L0.274,-0.307Z" style="fill:rgb(0,52,118);fill-rule:nonzero;"/>
                </g>
                <g transform="matrix(31.7322,0,0,14.4058,1751.99,1743.56)">
                    <path d="M0.168,-0.345L0.284,-0.714L0.335,-0.714L0.191,-0.279L0.191,0L0.143,0L0.143,-0.279L0,-0.714L0.051,-0.714L0.168,-0.345Z" style="fill:rgb(0,52,118);fill-rule:nonzero;"/>
                </g>
                <g transform="matrix(31.7322,0,0,14.4058,1762.62,1743.56)">
                    <path d="M0.196,-0.658C0.193,-0.631 0.189,-0.603 0.182,-0.573L0.05,0L0,0L0.172,-0.714L0.221,-0.714L0.397,0L0.348,0L0.211,-0.573C0.204,-0.603 0.199,-0.632 0.196,-0.658Z" style="fill:rgb(0,52,118);fill-rule:nonzero;"/>
                </g>
                <g transform="matrix(31.7322,0,0,14.4058,1775.22,1743.56)">
                    <path d="M0.423,0L0.375,0L0.375,-0.351L0.126,-0.351L0.126,0L0.078,0L0.078,-0.714L0.126,-0.714L0.126,-0.397L0.375,-0.397L0.375,-0.714L0.423,-0.714L0.423,0Z" style="fill:rgb(0,52,118);fill-rule:nonzero;"/>
                </g>
                <g transform="matrix(31.7322,0,0,14.4058,1799.15,1743.56)">
                    <path d="M0.03,0L0.03,-0.041L0.196,-0.371L0.036,-0.674L0.036,-0.714L0.331,-0.714L0.331,-0.668L0.091,-0.668L0.25,-0.371L0.083,-0.046L0.346,-0.046L0.346,0L0.03,0Z" style="fill:rgb(0,52,118);fill-rule:nonzero;"/>
                </g>
                <g transform="matrix(31.7322,0,0,14.4058,1810.83,1743.56)">
                    <path d="M0.168,-0.345L0.284,-0.714L0.335,-0.714L0.191,-0.279L0.191,0L0.143,0L0.143,-0.279L0,-0.714L0.051,-0.714L0.168,-0.345Z" style="fill:rgb(0,52,118);fill-rule:nonzero;"/>
                </g>
                <g transform="matrix(31.7322,0,0,14.4058,1821.46,1743.56)">
                    <path d="M0.454,0L0.393,0L0.123,-0.64L0.119,-0.64C0.123,-0.596 0.125,-0.553 0.125,-0.512L0.125,0L0.078,0L0.078,-0.714L0.14,-0.714L0.408,-0.081L0.411,-0.081C0.409,-0.134 0.407,-0.179 0.407,-0.215L0.407,-0.714L0.454,-0.714L0.454,0Z" style="fill:rgb(0,52,118);fill-rule:nonzero;"/>
                </g>
                <g transform="matrix(31.7322,0,0,14.4058,1838.35,1743.56)">
                    <path d="M0.197,0L0.149,0L0.149,-0.668L0.007,-0.668L0.007,-0.714L0.339,-0.714L0.339,-0.668L0.197,-0.668L0.197,0Z" style="fill:rgb(0,52,118);fill-rule:nonzero;"/>
                </g>
                <g transform="matrix(31.7322,0,0,14.4058,1849.37,1743.56)">
                    <path d="M0.348,0L0.285,-0.259L0.112,-0.259L0.05,0L0,0L0.172,-0.714L0.221,-0.714L0.397,0L0.348,0ZM0.274,-0.307L0.211,-0.573C0.204,-0.603 0.199,-0.632 0.196,-0.658C0.193,-0.63 0.188,-0.602 0.182,-0.573L0.121,-0.307L0.274,-0.307Z" style="fill:rgb(0,52,118);fill-rule:nonzero;"/>
                </g>
                <g transform="matrix(31.7322,0,0,14.4058,1861.96,1743.56)">
                    <path d="M0.327,-0.714L0.327,-0.668L0.126,-0.668L0.126,0L0.078,0L0.078,-0.714L0.327,-0.714Z" style="fill:rgb(0,52,118);fill-rule:nonzero;"/>
                </g>
                <g transform="matrix(31.7322,0,0,14.4058,1872.59,1743.56)">
                    <path d="M0.466,-0.358C0.466,-0.24 0.448,-0.149 0.413,-0.085C0.378,-0.022 0.326,0.01 0.26,0.01C0.192,0.01 0.141,-0.022 0.106,-0.086C0.072,-0.15 0.054,-0.241 0.054,-0.359C0.054,-0.482 0.071,-0.574 0.106,-0.634C0.14,-0.694 0.192,-0.724 0.261,-0.724C0.328,-0.724 0.378,-0.692 0.413,-0.629C0.448,-0.566 0.466,-0.475 0.466,-0.358ZM0.104,-0.358C0.104,-0.252 0.117,-0.172 0.144,-0.117C0.17,-0.063 0.209,-0.036 0.26,-0.036C0.311,-0.036 0.35,-0.063 0.376,-0.117C0.403,-0.17 0.416,-0.251 0.416,-0.358C0.416,-0.464 0.403,-0.544 0.377,-0.597C0.351,-0.651 0.312,-0.678 0.261,-0.678C0.209,-0.678 0.17,-0.651 0.143,-0.596C0.117,-0.542 0.104,-0.462 0.104,-0.358Z" style="fill:rgb(0,52,118);fill-rule:nonzero;"/>
                </g>
                <g transform="matrix(31.7322,0,0,14.4058,1889.09,1743.56)">
                    <path d="M0.327,-0.714L0.327,-0.668L0.126,-0.668L0.126,0L0.078,0L0.078,-0.714L0.327,-0.714Z" style="fill:rgb(0,52,118);fill-rule:nonzero;"/>
                </g>
                <g transform="matrix(31.7322,0,0,14.4058,1899.72,1743.56)">
                    <path d="M0.377,-0.509C0.377,-0.435 0.36,-0.381 0.326,-0.347C0.293,-0.312 0.243,-0.295 0.177,-0.295L0.126,-0.295L0.126,0L0.078,0L0.078,-0.714L0.176,-0.714C0.245,-0.714 0.296,-0.697 0.329,-0.665C0.361,-0.632 0.377,-0.58 0.377,-0.509ZM0.126,-0.339L0.174,-0.339C0.23,-0.339 0.27,-0.352 0.293,-0.378C0.316,-0.405 0.328,-0.448 0.328,-0.509C0.328,-0.566 0.316,-0.608 0.292,-0.633C0.267,-0.657 0.23,-0.67 0.179,-0.67L0.126,-0.67L0.126,-0.339Z" style="fill:rgb(0,52,118);fill-rule:nonzero;"/>
                </g>
                <g transform="matrix(31.7322,0,0,14.4058,1912.74,1743.56)">
                    <path d="M0.348,0L0.285,-0.259L0.112,-0.259L0.05,0L0,0L0.172,-0.714L0.221,-0.714L0.397,0L0.348,0ZM0.274,-0.307L0.211,-0.573C0.204,-0.603 0.199,-0.632 0.196,-0.658C0.193,-0.63 0.188,-0.602 0.182,-0.573L0.121,-0.307L0.274,-0.307Z" style="fill:rgb(0,52,118);fill-rule:nonzero;"/>
                </g>
                <g transform="matrix(31.7322,0,0,14.4058,1925.34,1743.56)">
                    <path d="M0.27,-0.724L0.318,-0.724L0.318,-0.636C0.386,-0.636 0.44,-0.613 0.478,-0.566C0.517,-0.519 0.536,-0.455 0.536,-0.374C0.536,-0.29 0.517,-0.223 0.478,-0.174C0.439,-0.125 0.386,-0.1 0.318,-0.1L0.318,0.01L0.27,0.01L0.27,-0.1C0.225,-0.1 0.186,-0.112 0.153,-0.135C0.12,-0.157 0.095,-0.19 0.078,-0.231C0.06,-0.273 0.052,-0.321 0.052,-0.374C0.052,-0.424 0.061,-0.469 0.078,-0.509C0.096,-0.549 0.122,-0.58 0.155,-0.603C0.188,-0.625 0.226,-0.636 0.27,-0.636L0.27,-0.724ZM0.318,-0.144C0.373,-0.144 0.414,-0.164 0.443,-0.204C0.472,-0.244 0.486,-0.3 0.486,-0.374C0.486,-0.519 0.43,-0.592 0.318,-0.592L0.318,-0.144ZM0.27,-0.592C0.216,-0.592 0.174,-0.573 0.145,-0.535C0.116,-0.497 0.102,-0.443 0.102,-0.374C0.102,-0.3 0.116,-0.244 0.145,-0.204C0.174,-0.164 0.215,-0.144 0.27,-0.144L0.27,-0.592Z" style="fill:rgb(0,52,118);fill-rule:nonzero;"/>
                </g>
                <g transform="matrix(31.7322,0,0,14.4058,1943.99,1743.56)">
                    <path d="M0.423,0L0.375,0L0.375,-0.351L0.126,-0.351L0.126,0L0.078,0L0.078,-0.714L0.126,-0.714L0.126,-0.397L0.375,-0.397L0.375,-0.714L0.423,-0.714L0.423,0Z" style="fill:rgb(0,52,118);fill-rule:nonzero;"/>
                </g>
                <g transform="matrix(31.7322,0,0,14.4058,1959.89,1743.56)">
                    <path d="M0.03,0L0.03,-0.041L0.196,-0.371L0.036,-0.674L0.036,-0.714L0.331,-0.714L0.331,-0.668L0.091,-0.668L0.25,-0.371L0.083,-0.046L0.346,-0.046L0.346,0L0.03,0Z" style="fill:rgb(0,52,118);fill-rule:nonzero;"/>
                </g>
                <g transform="matrix(31.7322,0,0,14.4058,1971.57,1743.56)">
                    <path d="M0.423,0L0.375,0L0.375,-0.351L0.126,-0.351L0.126,0L0.078,0L0.078,-0.714L0.126,-0.714L0.126,-0.397L0.375,-0.397L0.375,-0.714L0.423,-0.714L0.423,0Z" style="fill:rgb(0,52,118);fill-rule:nonzero;"/>
                </g>
            </g>
            <g transform="matrix(1,0,0,1,-3299.89,124.842)">
                <g transform="matrix(44,0,0,44,2566.26,659.856)">
                    <path d="M0.427,-0.357C0.427,-0.228 0.411,-0.134 0.38,-0.077C0.349,-0.019 0.299,0.01 0.23,0.01C0.161,0.01 0.111,-0.019 0.081,-0.077C0.051,-0.135 0.036,-0.228 0.036,-0.357C0.036,-0.486 0.052,-0.579 0.083,-0.638C0.115,-0.696 0.165,-0.725 0.232,-0.725C0.301,-0.725 0.35,-0.697 0.381,-0.64C0.411,-0.583 0.427,-0.488 0.427,-0.357ZM0.169,-0.357C0.169,-0.257 0.173,-0.19 0.182,-0.155C0.191,-0.12 0.207,-0.103 0.231,-0.103C0.247,-0.103 0.26,-0.111 0.269,-0.125C0.278,-0.14 0.284,-0.165 0.288,-0.2C0.292,-0.235 0.294,-0.287 0.294,-0.357C0.294,-0.455 0.289,-0.522 0.28,-0.558C0.271,-0.594 0.255,-0.612 0.231,-0.612C0.207,-0.612 0.191,-0.594 0.182,-0.558C0.173,-0.523 0.169,-0.456 0.169,-0.357Z" style="fill:white;fill-rule:nonzero;"/>
                </g>
                <g transform="matrix(44,0,0,44,2586.63,659.856)">
                    <path d="M0.405,-0.553C0.405,-0.508 0.394,-0.471 0.372,-0.44C0.349,-0.41 0.318,-0.389 0.278,-0.377L0.278,-0.373C0.323,-0.366 0.358,-0.348 0.382,-0.32C0.407,-0.292 0.419,-0.254 0.419,-0.206C0.419,-0.14 0.399,-0.088 0.358,-0.049C0.317,-0.01 0.261,0.01 0.19,0.01C0.127,0.01 0.074,-0.001 0.031,-0.024L0.031,-0.143C0.052,-0.13 0.076,-0.12 0.101,-0.112C0.126,-0.105 0.15,-0.101 0.173,-0.101C0.211,-0.101 0.239,-0.11 0.258,-0.127C0.278,-0.145 0.287,-0.172 0.287,-0.21C0.287,-0.281 0.243,-0.317 0.156,-0.317L0.115,-0.317L0.115,-0.416L0.154,-0.416C0.193,-0.416 0.222,-0.425 0.243,-0.443C0.264,-0.462 0.274,-0.489 0.274,-0.525C0.274,-0.553 0.267,-0.575 0.254,-0.589C0.241,-0.604 0.222,-0.611 0.198,-0.611C0.161,-0.611 0.126,-0.595 0.091,-0.564L0.031,-0.652C0.079,-0.7 0.14,-0.724 0.213,-0.724C0.273,-0.724 0.32,-0.709 0.354,-0.678C0.388,-0.648 0.405,-0.606 0.405,-0.553Z" style="fill:white;fill-rule:nonzero;"/>
                </g>
            </g>
        </g>
    </g>
</svg>
