<?xml version="1.0" encoding="UTF-8" standalone="no"?>
<!DOCTYPE svg PUBLIC "-//W3C//DTD SVG 1.1//EN" "http://www.w3.org/Graphics/SVG/1.1/DTD/svg11.dtd">
<svg width="100%" height="100%" viewBox="0 0 580 160" version="1.1" xmlns="http://www.w3.org/2000/svg" xmlns:xlink="http://www.w3.org/1999/xlink" xml:space="preserve" xmlns:serif="http://www.serif.com/" style="fill-rule:evenodd;clip-rule:evenodd;stroke-linejoin:round;stroke-miterlimit:2;">
    <g transform="matrix(1,0,0,1,771.263,-890.245)">
        <g>
            <g transform="matrix(1.12704,0,0,0.931737,-828.438,-1365.29)">
                <rect x="50.73" y="2420.79" width="514.624" height="171.722" style="fill:rgb(0,174,239);"/>
            </g>
            <g transform="matrix(1.12781,0,0,1,-2633.85,-173.964)">
                <g transform="matrix(2,0,0,2,865.328,-127.642)">
                    <path d="M432.974,624.247L446.185,607.484L446.185,636.855L432.974,653.618L432.974,624.247Z" style="fill:rgb(29,66,125);fill-rule:nonzero;"/>
                </g>
                <g transform="matrix(2,0,0,2,865.328,-127.642)">
                    <path d="M432.974,653.618L414.939,653.618C406.828,653.618 400.253,647.044 400.253,638.933C400.253,630.822 406.828,624.247 414.939,624.247L432.974,624.247L432.974,653.618Z" style="fill:rgb(35,93,171);fill-rule:nonzero;"/>
                </g>
                <g transform="matrix(2,0,0,2,865.328,-127.642)">
                    <path d="M546.243,636.855L446.185,636.855L446.185,607.484L546.243,607.484C554.354,607.484 560.929,614.06 560.929,622.17C560.929,630.281 554.354,636.855 546.243,636.855Z" style="fill:rgb(35,93,171);fill-rule:nonzero;"/>
                </g>
            </g>
            <g transform="matrix(1.49679,0,0,3.29704,-3246.62,-4724.77)">
                <g transform="matrix(27.8169,0,0,12.6283,1739.39,1723.39)">
                    <path d="M0.415,0L0.149,-0.659L0.145,-0.659C0.148,-0.619 0.149,-0.577 0.149,-0.535L0.149,0L0.101,0L0.101,-0.714L0.178,-0.714L0.431,-0.086L0.434,-0.086L0.687,-0.714L0.762,-0.714L0.762,0L0.712,0L0.712,-0.541C0.712,-0.579 0.714,-0.618 0.718,-0.658L0.714,-0.658L0.447,0L0.415,0Z" style="fill:white;fill-rule:nonzero;"/>
                </g>
                <g transform="matrix(27.8169,0,0,12.6283,1764.51,1723.39)">
                    <path d="M0.445,-0.252L0.155,-0.252L0.055,0L0,0L0.287,-0.717L0.319,-0.717L0.6,0L0.544,0L0.445,-0.252ZM0.173,-0.297L0.428,-0.297L0.331,-0.554C0.323,-0.574 0.313,-0.602 0.302,-0.638C0.293,-0.607 0.283,-0.579 0.273,-0.553L0.173,-0.297Z" style="fill:white;fill-rule:nonzero;"/>
                </g>
                <g transform="matrix(27.8169,0,0,12.6283,1782.31,1723.39)">
                    <path d="M0.219,-0.387L0.544,-0.387L0.544,-0.341L0.219,-0.341L0.219,-0.387ZM0.701,-0.358C0.701,-0.245 0.673,-0.155 0.616,-0.089C0.56,-0.023 0.481,0.01 0.382,0.01C0.283,0.01 0.205,-0.023 0.148,-0.089C0.091,-0.155 0.063,-0.245 0.063,-0.359C0.063,-0.472 0.092,-0.562 0.149,-0.627C0.206,-0.692 0.284,-0.725 0.383,-0.725C0.482,-0.725 0.56,-0.692 0.617,-0.627C0.673,-0.561 0.701,-0.472 0.701,-0.358ZM0.117,-0.358C0.117,-0.256 0.14,-0.177 0.186,-0.121C0.231,-0.065 0.297,-0.037 0.382,-0.037C0.468,-0.037 0.533,-0.065 0.579,-0.12C0.624,-0.175 0.647,-0.255 0.647,-0.358C0.647,-0.461 0.624,-0.54 0.579,-0.594C0.533,-0.649 0.468,-0.677 0.383,-0.677C0.298,-0.677 0.232,-0.649 0.186,-0.594C0.14,-0.538 0.117,-0.46 0.117,-0.358Z" style="fill:white;fill-rule:nonzero;"/>
                </g>
                <g transform="matrix(27.8169,0,0,12.6283,1804.68,1723.39)">
                    <path d="M0.491,0L0.101,0L0.101,-0.714L0.491,-0.714L0.491,-0.668L0.151,-0.668L0.151,-0.398L0.472,-0.398L0.472,-0.352L0.151,-0.352L0.151,-0.046L0.491,-0.046L0.491,0Z" style="fill:white;fill-rule:nonzero;"/>
                </g>
                <g transform="matrix(27.8169,0,0,12.6283,1832.36,1723.39)">
                    <path d="M0.287,0L0.237,0L0.237,-0.667L0.005,-0.667L0.005,-0.714L0.519,-0.714L0.519,-0.667L0.287,-0.667L0.287,0Z" style="fill:white;fill-rule:nonzero;"/>
                </g>
                <g transform="matrix(27.8169,0,0,12.6283,1848.04,1723.39)">
                    <path d="M0.445,-0.252L0.155,-0.252L0.055,0L0,0L0.287,-0.717L0.319,-0.717L0.6,0L0.544,0L0.445,-0.252ZM0.173,-0.297L0.428,-0.297L0.331,-0.554C0.323,-0.574 0.313,-0.602 0.302,-0.638C0.293,-0.607 0.283,-0.579 0.273,-0.553L0.173,-0.297Z" style="fill:white;fill-rule:nonzero;"/>
                </g>
                <g transform="matrix(31.7322,0,0,14.4058,1739.39,1743.56)">
                    <path d="M0.454,0L0.393,0L0.123,-0.64L0.119,-0.64C0.123,-0.596 0.125,-0.553 0.125,-0.512L0.125,0L0.078,0L0.078,-0.714L0.14,-0.714L0.408,-0.081L0.411,-0.081C0.409,-0.134 0.407,-0.179 0.407,-0.215L0.407,-0.714L0.454,-0.714L0.454,0Z" style="fill:rgb(0,52,118);fill-rule:nonzero;"/>
                </g>
                <g transform="matrix(31.7322,0,0,14.4058,1756.28,1743.56)">
                    <path d="M0.337,0L0.078,0L0.078,-0.714L0.337,-0.714L0.337,-0.668L0.126,-0.668L0.126,-0.397L0.325,-0.397L0.325,-0.351L0.126,-0.351L0.126,-0.046L0.337,-0.046L0.337,0Z" style="fill:rgb(0,52,118);fill-rule:nonzero;"/>
                </g>
                <g transform="matrix(31.7322,0,0,14.4058,1768.49,1743.56)">
                    <path d="M0.348,0L0.285,-0.259L0.112,-0.259L0.05,0L0,0L0.172,-0.714L0.221,-0.714L0.397,0L0.348,0ZM0.274,-0.307L0.211,-0.573C0.204,-0.603 0.199,-0.632 0.196,-0.658C0.193,-0.63 0.188,-0.602 0.182,-0.573L0.121,-0.307L0.274,-0.307Z" style="fill:rgb(0,52,118);fill-rule:nonzero;"/>
                </g>
                <g transform="matrix(31.7322,0,0,14.4058,1789.13,1743.56)">
                    <path d="M0.313,0L0.123,-0.65L0.119,-0.65C0.122,-0.582 0.124,-0.538 0.124,-0.52L0.124,0L0.078,0L0.078,-0.714L0.149,-0.714L0.309,-0.168C0.323,-0.12 0.333,-0.079 0.337,-0.045L0.341,-0.045C0.344,-0.069 0.354,-0.11 0.371,-0.167L0.53,-0.714L0.603,-0.714L0.603,0L0.555,0L0.555,-0.516C0.555,-0.536 0.557,-0.581 0.56,-0.649L0.556,-0.649L0.367,0L0.313,0Z" style="fill:rgb(0,52,118);fill-rule:nonzero;"/>
                </g>
                <g transform="matrix(31.7322,0,0,14.4058,1810.74,1743.56)">
                    <path d="M0.348,0L0.285,-0.259L0.112,-0.259L0.05,0L0,0L0.172,-0.714L0.221,-0.714L0.397,0L0.348,0ZM0.274,-0.307L0.211,-0.573C0.204,-0.603 0.199,-0.632 0.196,-0.658C0.193,-0.63 0.188,-0.602 0.182,-0.573L0.121,-0.307L0.274,-0.307Z" style="fill:rgb(0,52,118);fill-rule:nonzero;"/>
                </g>
                <g transform="matrix(31.7322,0,0,14.4058,1823.34,1743.56)">
                    <path d="M0.03,0L0.03,-0.041L0.196,-0.371L0.036,-0.674L0.036,-0.714L0.331,-0.714L0.331,-0.668L0.091,-0.668L0.25,-0.371L0.083,-0.046L0.346,-0.046L0.346,0L0.03,0Z" style="fill:rgb(0,52,118);fill-rule:nonzero;"/>
                </g>
            </g>
            <g transform="matrix(2,0,0,2,-1789.75,-266.984)">
                <path d="M545.827,627.562C546.205,628.167 545.457,628.824 544.876,628.411C542.647,626.828 541.523,623.591 541.523,618.731L541.523,617.586C541.523,616.047 542.759,614.795 544.277,614.795L546.545,614.795C548.064,614.795 549.3,616.047 549.3,617.586L549.3,619.878C549.3,621.417 548.064,622.669 546.545,622.669L545.412,622.669C545.164,622.669 544.938,622.811 544.829,623.033C544.726,623.246 544.095,624.784 545.827,627.562ZM546.545,623.964C548.778,623.964 550.595,622.131 550.595,619.878L550.595,617.586C550.595,615.333 548.778,613.5 546.545,613.5L544.277,613.5C542.044,613.5 540.229,615.333 540.229,617.586L540.229,618.731C540.229,628.739 544.897,630.841 548.813,630.841C549.075,630.841 549.311,630.683 549.411,630.44C549.512,630.199 549.456,629.921 549.271,629.735C546.196,626.656 545.899,624.722 545.937,623.964L546.545,623.964Z" style="fill:white;fill-rule:nonzero;"/>
            </g>
            <g transform="matrix(2,0,0,2,-1789.75,-266.984)">
                <path d="M535.692,619.878C535.692,621.417 534.457,622.669 532.938,622.669L531.804,622.669C531.556,622.669 531.33,622.811 531.221,623.033C531.118,623.246 530.487,624.784 532.22,627.562C532.597,628.167 531.85,628.824 531.268,628.411C529.04,626.827 527.916,623.591 527.916,618.731L527.916,617.586C527.916,616.047 529.151,614.795 530.67,614.795L532.938,614.795C534.457,614.795 535.692,616.047 535.692,617.586L535.692,619.878ZM532.938,613.5L530.67,613.5C528.437,613.5 526.621,615.333 526.621,617.586L526.621,618.731C526.621,628.739 531.289,630.841 535.206,630.841C535.467,630.841 535.704,630.683 535.804,630.44C535.904,630.199 535.849,629.921 535.664,629.735C532.588,626.656 532.292,624.722 532.329,623.964L532.938,623.964C535.171,623.964 536.987,622.131 536.987,619.878L536.987,617.586C536.987,615.333 535.171,613.5 532.938,613.5Z" style="fill:white;fill-rule:nonzero;"/>
            </g>
        </g>
    </g>
</svg>
