<?xml version="1.0" encoding="UTF-8" standalone="no"?>
<!DOCTYPE svg PUBLIC "-//W3C//DTD SVG 1.1//EN" "http://www.w3.org/Graphics/SVG/1.1/DTD/svg11.dtd">
<svg width="100%" height="100%" viewBox="0 0 580 160" version="1.1" xmlns="http://www.w3.org/2000/svg" xmlns:xlink="http://www.w3.org/1999/xlink" xml:space="preserve" xmlns:serif="http://www.serif.com/" style="fill-rule:evenodd;clip-rule:evenodd;stroke-linejoin:round;stroke-miterlimit:2;">
    <g transform="matrix(1,0,0,1,771.263,-487.814)">
        <g>
            <g transform="matrix(1.12704,0,0,0.931737,-828.438,-1767.73)">
                <rect x="50.73" y="2420.79" width="514.624" height="171.722" style="fill:rgb(0,174,239);"/>
            </g>
            <g transform="matrix(2.24073,0,0,2.24073,-1651.33,-679.833)">
                <path d="M432.974,545.917L446.185,529.154L446.185,558.526L432.974,575.289L432.974,545.917Z" style="fill:rgb(74,124,191);fill-rule:nonzero;"/>
            </g>
            <g transform="matrix(2.24073,0,0,2.24073,-1651.33,-679.833)">
                <path d="M432.974,575.289L414.939,575.289C406.828,575.289 400.253,568.714 400.253,560.604L400.253,560.603C400.253,552.492 406.828,545.917 414.939,545.917L432.974,545.917L432.974,575.289Z" style="fill:rgb(135,171,218);fill-rule:nonzero;"/>
            </g>
            <g transform="matrix(2.24073,0,0,2.24073,-1651.33,-679.833)">
                <path d="M546.243,558.526L446.185,558.526L446.185,529.154L546.243,529.154C554.354,529.154 560.929,535.729 560.929,543.841C560.929,551.951 554.354,558.526 546.243,558.526Z" style="fill:rgb(135,171,218);fill-rule:nonzero;"/>
            </g>
            <g transform="matrix(1.49679,0,0,3.29704,-3246.62,-5127.2)">
                <g transform="matrix(27.8169,0,0,12.6283,1739.39,1723.39)">
                    <path d="M0.415,0L0.149,-0.659L0.145,-0.659C0.148,-0.619 0.149,-0.577 0.149,-0.535L0.149,0L0.101,0L0.101,-0.714L0.178,-0.714L0.431,-0.086L0.434,-0.086L0.687,-0.714L0.762,-0.714L0.762,0L0.712,0L0.712,-0.541C0.712,-0.579 0.714,-0.618 0.718,-0.658L0.714,-0.658L0.447,0L0.415,0Z" style="fill:white;fill-rule:nonzero;"/>
                </g>
                <g transform="matrix(27.8169,0,0,12.6283,1764.51,1723.39)">
                    <path d="M0.445,-0.252L0.155,-0.252L0.055,0L0,0L0.287,-0.717L0.319,-0.717L0.6,0L0.544,0L0.445,-0.252ZM0.173,-0.297L0.428,-0.297L0.331,-0.554C0.323,-0.574 0.313,-0.602 0.302,-0.638C0.293,-0.607 0.283,-0.579 0.273,-0.553L0.173,-0.297Z" style="fill:white;fill-rule:nonzero;"/>
                </g>
                <g transform="matrix(27.8169,0,0,12.6283,1782.31,1723.39)">
                    <path d="M0.219,-0.387L0.544,-0.387L0.544,-0.341L0.219,-0.341L0.219,-0.387ZM0.701,-0.358C0.701,-0.245 0.673,-0.155 0.616,-0.089C0.56,-0.023 0.481,0.01 0.382,0.01C0.283,0.01 0.205,-0.023 0.148,-0.089C0.091,-0.155 0.063,-0.245 0.063,-0.359C0.063,-0.472 0.092,-0.562 0.149,-0.627C0.206,-0.692 0.284,-0.725 0.383,-0.725C0.482,-0.725 0.56,-0.692 0.617,-0.627C0.673,-0.561 0.701,-0.472 0.701,-0.358ZM0.117,-0.358C0.117,-0.256 0.14,-0.177 0.186,-0.121C0.231,-0.065 0.297,-0.037 0.382,-0.037C0.468,-0.037 0.533,-0.065 0.579,-0.12C0.624,-0.175 0.647,-0.255 0.647,-0.358C0.647,-0.461 0.624,-0.54 0.579,-0.594C0.533,-0.649 0.468,-0.677 0.383,-0.677C0.298,-0.677 0.232,-0.649 0.186,-0.594C0.14,-0.538 0.117,-0.46 0.117,-0.358Z" style="fill:white;fill-rule:nonzero;"/>
                </g>
                <g transform="matrix(27.8169,0,0,12.6283,1804.68,1723.39)">
                    <path d="M0.491,0L0.101,0L0.101,-0.714L0.491,-0.714L0.491,-0.668L0.151,-0.668L0.151,-0.398L0.472,-0.398L0.472,-0.352L0.151,-0.352L0.151,-0.046L0.491,-0.046L0.491,0Z" style="fill:white;fill-rule:nonzero;"/>
                </g>
                <g transform="matrix(27.8169,0,0,12.6283,1832.36,1723.39)">
                    <path d="M0.287,0L0.237,0L0.237,-0.667L0.005,-0.667L0.005,-0.714L0.519,-0.714L0.519,-0.667L0.287,-0.667L0.287,0Z" style="fill:white;fill-rule:nonzero;"/>
                </g>
                <g transform="matrix(27.8169,0,0,12.6283,1848.04,1723.39)">
                    <path d="M0.618,0L0.568,0L0.568,-0.351L0.151,-0.351L0.151,0L0.101,0L0.101,-0.714L0.151,-0.714L0.151,-0.397L0.568,-0.397L0.568,-0.714L0.618,-0.714L0.618,0Z" style="fill:white;fill-rule:nonzero;"/>
                </g>
                <g transform="matrix(27.8169,0,0,12.6283,1869.16,1723.39)">
                    <path d="M0.62,0L0.57,0L0.147,-0.634L0.143,-0.634C0.147,-0.558 0.149,-0.501 0.149,-0.463L0.149,0L0.101,0L0.101,-0.714L0.151,-0.714L0.573,-0.081L0.576,-0.081C0.573,-0.14 0.572,-0.195 0.572,-0.248L0.572,-0.714L0.62,-0.714L0.62,0Z" style="fill:white;fill-rule:nonzero;"/>
                </g>
                <g transform="matrix(31.7322,0,0,14.4058,1739.39,1742.56)">
                    <path d="M0.337,0L0.078,0L0.078,-0.714L0.337,-0.714L0.337,-0.668L0.126,-0.668L0.126,-0.397L0.325,-0.397L0.325,-0.351L0.126,-0.351L0.126,-0.046L0.337,-0.046L0.337,0Z" style="fill:rgb(0,52,118);fill-rule:nonzero;"/>
                </g>
                <g transform="matrix(31.7322,0,0,14.4058,1751.6,1742.56)">
                    <path d="M0.058,-0.714L0.312,-0.714L0.312,-0.668L0.058,-0.668L0.058,-0.714ZM0.322,-0.046L0.322,0L0.048,0L0.048,-0.046L0.322,-0.046ZM0.076,-0.397L0.294,-0.397L0.294,-0.351L0.076,-0.351L0.076,-0.397Z" style="fill:rgb(0,52,118);fill-rule:nonzero;"/>
                </g>
                <g transform="matrix(31.7322,0,0,14.4058,1763.35,1742.56)">
                    <path d="M0.466,-0.358C0.466,-0.24 0.448,-0.149 0.413,-0.085C0.378,-0.022 0.326,0.01 0.26,0.01C0.192,0.01 0.141,-0.022 0.106,-0.086C0.072,-0.15 0.054,-0.241 0.054,-0.359C0.054,-0.482 0.071,-0.574 0.106,-0.634C0.14,-0.694 0.192,-0.724 0.261,-0.724C0.328,-0.724 0.378,-0.692 0.413,-0.629C0.448,-0.566 0.466,-0.475 0.466,-0.358ZM0.104,-0.358C0.104,-0.252 0.117,-0.172 0.144,-0.117C0.17,-0.063 0.209,-0.036 0.26,-0.036C0.311,-0.036 0.35,-0.063 0.376,-0.117C0.403,-0.17 0.416,-0.251 0.416,-0.358C0.416,-0.464 0.403,-0.544 0.377,-0.597C0.351,-0.651 0.312,-0.678 0.261,-0.678C0.209,-0.678 0.17,-0.651 0.143,-0.596C0.117,-0.542 0.104,-0.462 0.104,-0.358Z" style="fill:rgb(0,52,118);fill-rule:nonzero;"/>
                </g>
                <g transform="matrix(31.7322,0,0,14.4058,1779.85,1742.56)">
                    <path d="M0.168,-0.345L0.284,-0.714L0.335,-0.714L0.191,-0.279L0.191,0L0.143,0L0.143,-0.279L0,-0.714L0.051,-0.714L0.168,-0.345Z" style="fill:rgb(0,52,118);fill-rule:nonzero;"/>
                </g>
                <g transform="matrix(31.7322,0,0,14.4058,1790.48,1742.56)">
                    <path d="M0.03,0L0.03,-0.041L0.196,-0.371L0.036,-0.674L0.036,-0.714L0.331,-0.714L0.331,-0.668L0.091,-0.668L0.25,-0.371L0.083,-0.046L0.346,-0.046L0.346,0L0.03,0Z" style="fill:rgb(0,52,118);fill-rule:nonzero;"/>
                </g>
                <g transform="matrix(31.7322,0,0,14.4058,1802.16,1742.56)">
                    <rect x="0.078" y="-0.714" width="0.048" height="0.714" style="fill:rgb(0,52,118);fill-rule:nonzero;"/>
                </g>
                <g transform="matrix(31.7322,0,0,14.4058,1808.64,1742.56)">
                    <path d="M0.466,-0.358C0.466,-0.24 0.448,-0.149 0.413,-0.085C0.378,-0.022 0.326,0.01 0.26,0.01C0.192,0.01 0.141,-0.022 0.106,-0.086C0.072,-0.15 0.054,-0.241 0.054,-0.359C0.054,-0.482 0.071,-0.574 0.106,-0.634C0.14,-0.694 0.192,-0.724 0.261,-0.724C0.328,-0.724 0.378,-0.692 0.413,-0.629C0.448,-0.566 0.466,-0.475 0.466,-0.358ZM0.104,-0.358C0.104,-0.252 0.117,-0.172 0.144,-0.117C0.17,-0.063 0.209,-0.036 0.26,-0.036C0.311,-0.036 0.35,-0.063 0.376,-0.117C0.403,-0.17 0.416,-0.251 0.416,-0.358C0.416,-0.464 0.403,-0.544 0.377,-0.597C0.351,-0.651 0.312,-0.678 0.261,-0.678C0.209,-0.678 0.17,-0.651 0.143,-0.596C0.117,-0.542 0.104,-0.462 0.104,-0.358Z" style="fill:rgb(0,52,118);fill-rule:nonzero;"/>
                </g>
                <g transform="matrix(31.7322,0,0,14.4058,1825.14,1742.56)">
                    <path d="M0.011,-0.047L0.17,-0.714L0.22,-0.714L0.382,-0.041L0.382,0L0.011,0L0.011,-0.047ZM0.194,-0.642C0.19,-0.62 0.186,-0.599 0.182,-0.58C0.178,-0.561 0.139,-0.383 0.064,-0.046L0.329,-0.046L0.234,-0.457C0.214,-0.546 0.201,-0.608 0.194,-0.642Z" style="fill:rgb(0,52,118);fill-rule:nonzero;"/>
                </g>
                <g transform="matrix(31.7322,0,0,14.4058,1837.61,1742.56)">
                    <path d="M0.466,-0.358C0.466,-0.24 0.448,-0.149 0.413,-0.085C0.378,-0.022 0.326,0.01 0.26,0.01C0.192,0.01 0.141,-0.022 0.106,-0.086C0.072,-0.15 0.054,-0.241 0.054,-0.359C0.054,-0.482 0.071,-0.574 0.106,-0.634C0.14,-0.694 0.192,-0.724 0.261,-0.724C0.328,-0.724 0.378,-0.692 0.413,-0.629C0.448,-0.566 0.466,-0.475 0.466,-0.358ZM0.104,-0.358C0.104,-0.252 0.117,-0.172 0.144,-0.117C0.17,-0.063 0.209,-0.036 0.26,-0.036C0.311,-0.036 0.35,-0.063 0.376,-0.117C0.403,-0.17 0.416,-0.251 0.416,-0.358C0.416,-0.464 0.403,-0.544 0.377,-0.597C0.351,-0.651 0.312,-0.678 0.261,-0.678C0.209,-0.678 0.17,-0.651 0.143,-0.596C0.117,-0.542 0.104,-0.462 0.104,-0.358Z" style="fill:rgb(0,52,118);fill-rule:nonzero;"/>
                </g>
                <g transform="matrix(31.7322,0,0,14.4058,1854.11,1742.56)">
                    <path d="M0.197,0L0.149,0L0.149,-0.668L0.007,-0.668L0.007,-0.714L0.339,-0.714L0.339,-0.668L0.197,-0.668L0.197,0Z" style="fill:rgb(0,52,118);fill-rule:nonzero;"/>
                </g>
                <g transform="matrix(31.7322,0,0,14.4058,1865.13,1742.56)">
                    <path d="M0.423,0L0.375,0L0.375,-0.351L0.126,-0.351L0.126,0L0.078,0L0.078,-0.714L0.126,-0.714L0.126,-0.397L0.375,-0.397L0.375,-0.714L0.423,-0.714L0.423,0Z" style="fill:rgb(0,52,118);fill-rule:nonzero;"/>
                </g>
                <g transform="matrix(31.7322,0,0,14.4058,1881.03,1742.56)">
                    <path d="M0.03,0L0.03,-0.041L0.196,-0.371L0.036,-0.674L0.036,-0.714L0.331,-0.714L0.331,-0.668L0.091,-0.668L0.25,-0.371L0.083,-0.046L0.346,-0.046L0.346,0L0.03,0Z" style="fill:rgb(0,52,118);fill-rule:nonzero;"/>
                </g>
                <g transform="matrix(31.7322,0,0,14.4058,1892.71,1742.56)">
                    <path d="M0.423,0L0.375,0L0.375,-0.351L0.126,-0.351L0.126,0L0.078,0L0.078,-0.714L0.126,-0.714L0.126,-0.397L0.375,-0.397L0.375,-0.714L0.423,-0.714L0.423,0Z" style="fill:rgb(0,52,118);fill-rule:nonzero;"/>
                </g>
            </g>
            <g transform="matrix(1,0,0,1,-3299.89,-69.4389)">
                <g transform="matrix(44,0,0,44,2566.26,659.856)">
                    <path d="M0.427,-0.357C0.427,-0.228 0.411,-0.134 0.38,-0.077C0.349,-0.019 0.299,0.01 0.23,0.01C0.161,0.01 0.111,-0.019 0.081,-0.077C0.051,-0.135 0.036,-0.228 0.036,-0.357C0.036,-0.486 0.052,-0.579 0.083,-0.638C0.115,-0.696 0.165,-0.725 0.232,-0.725C0.301,-0.725 0.35,-0.697 0.381,-0.64C0.411,-0.583 0.427,-0.488 0.427,-0.357ZM0.169,-0.357C0.169,-0.257 0.173,-0.19 0.182,-0.155C0.191,-0.12 0.207,-0.103 0.231,-0.103C0.247,-0.103 0.26,-0.111 0.269,-0.125C0.278,-0.14 0.284,-0.165 0.288,-0.2C0.292,-0.235 0.294,-0.287 0.294,-0.357C0.294,-0.455 0.289,-0.522 0.28,-0.558C0.271,-0.594 0.255,-0.612 0.231,-0.612C0.207,-0.612 0.191,-0.594 0.182,-0.558C0.173,-0.523 0.169,-0.456 0.169,-0.357Z" style="fill:white;fill-rule:nonzero;"/>
                </g>
                <g transform="matrix(44,0,0,44,2586.63,659.856)">
                    <path d="M0.419,0L0.036,0L0.036,-0.099L0.163,-0.279C0.198,-0.328 0.222,-0.365 0.235,-0.389C0.248,-0.413 0.257,-0.436 0.264,-0.458C0.27,-0.48 0.273,-0.502 0.273,-0.526C0.273,-0.553 0.267,-0.574 0.255,-0.587C0.242,-0.601 0.227,-0.608 0.207,-0.608C0.19,-0.608 0.174,-0.603 0.159,-0.594C0.144,-0.585 0.125,-0.569 0.104,-0.545L0.03,-0.623C0.064,-0.662 0.096,-0.688 0.125,-0.703C0.154,-0.717 0.186,-0.724 0.22,-0.724C0.278,-0.724 0.323,-0.707 0.355,-0.673C0.388,-0.639 0.404,-0.592 0.404,-0.532C0.404,-0.505 0.401,-0.479 0.395,-0.455C0.389,-0.43 0.38,-0.406 0.368,-0.381C0.357,-0.357 0.342,-0.331 0.324,-0.304C0.306,-0.278 0.26,-0.217 0.185,-0.122L0.185,-0.118L0.419,-0.118L0.419,0Z" style="fill:white;fill-rule:nonzero;"/>
                </g>
            </g>
        </g>
    </g>
</svg>
